HIERARCHY
ROOT Hips
{
	OFFSET 0.00 0.00 0.00
	CHANNELS 6 Xposition Yposition Zposition Yrotation Xrotation Zrotation
	JOINT LHipJoint
	{
		OFFSET	0.0000	0.0000	0.0000
		CHANNELS 3 Yrotation Xrotation Zrotation
		JOINT LeftUpLeg
		{
			OFFSET	1.0138	-0.0809	-0.0827
			CHANNELS 3 Yrotation Xrotation Zrotation
			JOINT LeftLeg
			{
				OFFSET	0.4110	-3.9095	0.3245
				CHANNELS 3 Yrotation Xrotation Zrotation
				JOINT LeftFoot
				{
					OFFSET	0.3810	-4.0555	-0.1470
					CHANNELS 3 Yrotation Xrotation Zrotation
					JOINT LeftToeBase
					{
						OFFSET	0.1396	-0.4462	1.3079
						CHANNELS 3 Yrotation Xrotation Zrotation
						End Site
						{
							OFFSET 0.0161 -0.0248 0.1809
						}
					}
				}
			}
		}
	}
	JOINT LowerBack
	{
		OFFSET	0.0000	0.7977	-0.3873
		CHANNELS 3 Yrotation Xrotation Zrotation
		JOINT Spine
		{
			OFFSET	0.0000	1.4131	0.1715
			CHANNELS 3 Yrotation Xrotation Zrotation
			JOINT Spine1
			{
				OFFSET	0.0000	1.4392	-0.1032
				CHANNELS 3 Yrotation Xrotation Zrotation
				JOINT LeftShoulder
				{
					OFFSET	0.2274	1.0382	0.4032
					CHANNELS 3 Yrotation Xrotation Zrotation
					JOINT LeftArm
					{
						OFFSET	1.4730	-0.2267	-0.0231
						CHANNELS 3 Yrotation Xrotation Zrotation
						JOINT LeftForeArm
						{
							OFFSET	1.6131	-1.8059	0.0081
							CHANNELS 3 Yrotation Xrotation Zrotation
							JOINT LeftHand
							{
								OFFSET	1.2197	-1.2423	1.6317
								CHANNELS 3 Yrotation Xrotation Zrotation
								JOINT LThumb
								{
									OFFSET	0.0109	-0.0753	0.4387
									CHANNELS 3 Yrotation Xrotation Zrotation
									End Site
									{
										OFFSET -0.2090 -0.0868 0.2097
									}
								}
								JOINT LeftFingerBase
								{
									OFFSET	0.1071	-0.1567	0.2607
									CHANNELS 3 Yrotation Xrotation Zrotation
									JOINT LeftHandFinger1
									{
										OFFSET	0.1706	-0.2492	0.6830
										CHANNELS 3 Yrotation Xrotation Zrotation
										End Site
										{
											OFFSET 0.0335 -0.1507 0.2071
										}
									}
								}
							}
						}
					}
				}
				JOINT Neck
				{
					OFFSET	0.0000	1.7498	0.2381
					CHANNELS 3 Yrotation Xrotation Zrotation
					JOINT Neck1
					{
						OFFSET	0.0000	0.5043	0.1959
						CHANNELS 3 Yrotation Xrotation Zrotation
						JOINT Head
						{
							OFFSET	0.0000	0.5044	0.1959
							CHANNELS 3 Yrotation Xrotation Zrotation
							End Site
							{
								OFFSET 0.0000 1.4798 -0.0693
							}
						}
					}
				}
				JOINT RightShoulder
				{
					OFFSET	-0.2274	1.0382	0.4032
					CHANNELS 3 Yrotation Xrotation Zrotation
					JOINT RightArm
					{
						OFFSET	-1.4730	-0.2267	-0.0231
						CHANNELS 3 Yrotation Xrotation Zrotation
						JOINT RightForeArm
						{
							OFFSET	-1.6131	-1.8059	0.0081
							CHANNELS 3 Yrotation Xrotation Zrotation
							JOINT RightHand
							{
								OFFSET	-1.2197	-1.2423	1.6317
								CHANNELS 3 Yrotation Xrotation Zrotation
								JOINT RThumb
								{
									OFFSET	-0.0109	-0.0753	0.4387
									CHANNELS 3 Yrotation Xrotation Zrotation
									End Site
									{
										OFFSET 0.2090 -0.0868 0.2097
									}
								}
								JOINT RightFingerBase
								{
									OFFSET	-0.1071	-0.1567	0.2607
									CHANNELS 3 Yrotation Xrotation Zrotation
									JOINT RightHandFinger1
									{
										OFFSET	-0.1706	-0.2492	0.6830
										CHANNELS 3 Yrotation Xrotation Zrotation
										End Site
										{
											OFFSET -0.0335 -0.1507 0.2071
										}
									}
								}
							}
						}
					}
				}
			}
		}
	}
	JOINT RHipJoint
	{
		OFFSET	0.0000	0.0000	0.0000
		CHANNELS 3 Yrotation Xrotation Zrotation
		JOINT RightUpLeg
		{
			OFFSET	-1.0138	-0.0809	-0.0827
			CHANNELS 3 Yrotation Xrotation Zrotation
			JOINT RightLeg
			{
				OFFSET	-0.4110	-3.9095	0.3245
				CHANNELS 3 Yrotation Xrotation Zrotation
				JOINT RightFoot
				{
					OFFSET	-0.3810	-4.0555	-0.1470
					CHANNELS 3 Yrotation Xrotation Zrotation
					JOINT RightToeBase
					{
						OFFSET	-0.1396	-0.4462	1.3079
						CHANNELS 3 Yrotation Xrotation Zrotation
						End Site
						{
							OFFSET -0.0161 -0.0248 0.1809
						}
					}
				}
			}
		}
	}
}
MOTION
Frames: 13
Frame Time: 0.0333333
0.0254 8.5258 0.0175 -1.3131 -5.3185 -2.3761 0.0000 -0.0000 0.0000 5.1793 -15.5014 -6.7371 28.3697 57.6945 24.9464 7.6644 -3.5030 1.9041 -0.0000 -1.6699 0.0000 0.0000 -0.0000 0.0000 0.0169 3.6793 0.8225 0.2573 7.3598 0.3502 -14.4113 0.3432 -2.7679 -0.6288 3.1054 -27.7557 18.6211 20.7401 1.2580 18.7449 -2.3175 -1.9209 42.2521 -0.6328 -4.9195 -4.0053 25.1384 -11.0706 -17.4122 6.7752 -12.0554 0.9541 2.0383 -0.1103 0.9541 2.0383 -0.1103 -2.0037 13.6770 2.3032 1.3044 3.1515 3.8178 31.6381 -6.8114 18.8768 34.4815 -31.6237 -8.1352 -45.6330 6.1324 79.7483 -21.6903 -10.8426 -0.0997 -7.0429 28.7693 0.8541 62.4525 20.7452 52.6384 0.0000 -0.0000 0.0000 -3.5112 -3.1234 11.7767 -5.7835 20.5957 3.2463 2.5208 -14.8643 -11.5690 0.0000 1.9782 -0.0000 
0.0338 8.5511 -0.0433 -2.9026 -4.8854 -1.2441 0.0000 -0.0000 0.0000 4.9480 -18.0802 -7.6779 22.9777 51.4296 18.7551 8.1869 -4.6658 1.6453 0.0000 -0.6281 -0.0000 0.0000 -0.0000 0.0000 0.7487 3.7264 0.4814 1.5951 7.4723 -0.2811 -12.6586 0.2991 -3.7749 0.5412 5.1680 -28.0796 18.9702 21.0835 1.3884 19.4171 -1.6368 -0.7087 42.2520 -0.6328 -4.9195 -4.4999 25.4626 -11.5374 -17.8335 7.0893 -12.4192 0.9867 2.0331 -0.2655 0.9867 2.0332 -0.2655 -1.7248 13.5144 1.8622 2.6051 2.9482 2.8575 30.6334 -7.1826 19.6666 34.7085 -31.7823 -8.2509 -46.6893 6.0199 79.7539 -19.5736 -9.3199 -0.1174 -7.0429 28.7693 0.8541 62.4525 20.7452 52.6384 0.0000 -0.0000 0.0000 -3.7231 -0.7716 10.1059 -2.8399 19.7361 4.5237 2.6158 -15.6221 -11.5570 -0.0000 1.9657 -0.0000 
0.0461 8.5823 -0.0987 -4.2682 -4.2221 -0.1181 0.0000 -0.0000 0.0000 4.4589 -20.3404 -8.7860 18.5156 43.0603 13.9939 8.4646 -4.1520 2.1533 0.0000 0.1829 -0.0000 0.0000 -0.0000 0.0000 1.4004 3.6816 0.0855 2.7695 7.4017 -0.8856 -11.2761 0.2898 -4.5752 1.8487 7.3518 -28.4447 18.9837 21.1146 1.4052 20.6304 -1.4980 -0.1541 42.2520 -0.6328 -4.9195 -5.0505 25.8155 -12.0531 -18.2990 7.4313 -12.8219 1.0158 2.0212 -0.4078 1.0158 2.0212 -0.4078 -1.4103 13.2924 1.3711 3.6109 2.8188 2.2268 29.8767 -7.3686 20.1084 34.9306 -31.9312 -8.3685 -47.4009 5.7502 79.6208 -17.3433 -7.5363 0.0054 -7.0429 28.7693 0.8541 62.4525 20.7452 52.6384 0.0000 -0.0000 0.0000 -3.8380 1.7252 8.4256 -0.0902 18.0261 5.4927 2.7154 -16.0331 -12.1877 0.0000 1.6096 -0.0000 
0.0597 8.6162 -0.1507 -5.4075 -3.4052 0.8085 0.0000 -0.0000 0.0000 3.8320 -21.9588 -9.6469 14.9981 32.6130 10.4560 8.1679 -2.3746 2.9225 -0.0000 0.6835 -0.0000 0.0000 -0.0000 0.0000 1.9578 3.5613 -0.2744 3.7897 7.1741 -1.3149 -10.3546 0.2864 -5.2290 3.0902 9.6053 -28.8053 18.7462 20.9073 1.3333 22.1701 -1.5074 -0.2103 42.2520 -0.6328 -4.9195 -5.6568 26.1945 -12.6141 -18.8071 7.7987 -13.2622 1.0413 1.9958 -0.5329 1.0413 1.9958 -0.5329 -1.0484 13.0517 0.8764 4.3039 2.7357 1.7873 29.3935 -7.4146 20.2350 35.1139 -32.0505 -8.4680 -47.7718 5.4240 79.4815 -15.2448 -5.9162 0.0648 -7.0429 28.7693 0.8541 62.4525 20.7452 52.6384 0.0000 -0.0000 0.0000 -3.8409 4.5063 6.9938 2.1587 15.3750 5.9666 2.7899 -15.9517 -13.1419 -0.0000 0.8982 0.0000 
0.0729 8.6450 -0.2024 -6.3349 -2.5623 1.3976 0.0000 -0.0000 0.0000 3.4435 -22.4580 -9.9929 12.4523 20.6644 7.6079 7.0472 -0.3946 3.0683 0.0000 0.7910 -0.0000 0.0000 -0.0000 0.0000 2.4080 3.4035 -0.5141 4.6585 6.8593 -1.4453 -9.7863 0.2817 -5.7448 4.0804 11.7535 -29.2060 18.4576 20.6422 1.2392 23.6594 -1.1029 -0.5180 42.2520 -0.6328 -4.9195 -6.3076 26.5903 -13.2098 -19.3481 8.1829 -13.7319 1.0645 1.9501 -0.6430 1.0645 1.9501 -0.6430 -0.6492 12.7809 0.3787 4.6949 2.6806 1.3740 29.1440 -7.4259 20.1699 35.2670 -32.1495 -8.5515 -47.8894 5.2906 79.5305 -13.6695 -5.2855 -0.3262 -7.0429 28.7693 0.8541 62.4525 20.7452 52.6384 0.0000 -0.0000 0.0000 -3.7711 7.7465 5.9124 3.7933 11.7063 5.9273 2.7005 -15.1731 -13.3957 0.0000 -0.1735 0.0000 
0.0866 8.6591 -0.2543 -6.9692 -1.8113 1.7083 0.0000 -0.0000 0.0000 3.6569 -21.5122 -10.0762 10.8171 8.5451 4.8319 5.2577 0.6632 2.1047 -0.0000 0.5024 0.0000 0.0000 -0.0000 0.0000 2.7058 3.2346 -0.6465 5.2909 6.5060 -1.2926 -9.3652 0.2825 -6.1108 4.7973 13.5334 -29.6795 18.3617 20.5487 1.2048 24.8043 0.0254 -0.5950 42.2520 -0.6328 -4.9195 -6.9848 26.9909 -13.8274 -19.9079 8.5732 -14.2189 1.0882 1.8887 -0.7430 1.0882 1.8887 -0.7430 -0.2358 12.4601 -0.1129 4.8549 2.6411 0.9028 29.0083 -7.4503 20.0326 35.4618 -32.2756 -8.6577 -47.9183 5.6007 79.9738 -12.9339 -6.4134 -1.5448 -7.0429 28.7693 0.8541 62.4525 20.7452 52.6384 0.0000 -0.0000 0.0000 -3.7878 11.1187 5.0632 4.7533 7.9217 5.5952 2.4832 -13.9282 -12.7107 -0.0000 -1.6845 -0.0000 
0.1035 8.6500 -0.2993 -7.1831 -1.2420 1.8767 0.0000 -0.0000 0.0000 4.4278 -20.3528 -10.3919 10.0871 0.1666 2.4037 3.2674 -0.4449 0.4254 0.0000 -0.1003 -0.0000 0.0000 -0.0000 0.0000 2.8146 3.0545 -0.6982 5.5628 6.1204 -0.9923 -8.9653 0.2925 -6.3324 5.3491 14.7163 -30.1474 18.6308 20.7934 1.2902 25.5460 1.6859 -0.2472 42.2520 -0.6328 -4.9195 -7.6728 27.3867 -14.4558 -20.4746 8.9607 -14.7128 1.1124 1.8383 -0.8315 1.1124 1.8383 -0.8315 0.1407 12.1552 -0.5460 4.8817 2.6081 0.3964 28.8895 -7.4167 19.8869 35.7166 -32.4370 -8.7989 -47.9687 6.3339 80.8625 -12.9541 -9.0602 -3.5500 -7.0429 28.7693 0.8541 62.4525 20.7452 52.6384 0.0000 -0.0000 0.0000 -4.0388 13.9434 4.3266 5.1035 5.6653 5.1959 2.1981 -12.8185 -11.2944 0.0000 -3.8980 -0.0000 
0.1224 8.6109 -0.3159 -7.0386 -0.9491 1.8497 0.0000 -0.0000 0.0000 5.4393 -21.9669 -11.0316 10.1769 1.9317 1.7036 1.6025 -5.3769 -0.8194 -0.0000 -0.8832 0.0000 0.0000 -0.0000 0.0000 2.8132 2.8588 -0.5150 5.5346 5.7251 -0.6985 -8.6165 0.3067 -6.4416 5.7732 15.2205 -30.4773 19.2920 21.3997 1.5114 25.9430 3.4341 0.3680 42.2521 -0.6328 -4.9195 -8.3583 27.7700 -15.0834 -21.0371 9.3381 -15.2040 1.1299 1.8435 -0.8950 1.1299 1.8435 -0.8950 0.3504 12.0471 -0.8451 4.8421 2.5809 -0.0666 28.7541 -7.1739 19.7714 36.1241 -32.4469 -9.2081 -48.0315 7.1103 81.9924 -13.2654 -11.8139 -5.7454 -7.0429 28.7693 0.8541 62.4525 20.7452 52.6384 0.0000 -0.0000 0.0000 -4.4639 16.4652 3.9033 5.0935 5.1252 4.7135 2.0488 -12.5574 -10.8025 -0.0012 -7.8565 0.1615 
0.1447 8.5693 -0.3130 -6.8583 -0.9796 1.9598 0.0000 -0.0000 0.0000 5.9004 -22.0324 -11.9680 10.1113 4.6788 1.6038 0.8894 -8.1661 0.7649 0.0000 -1.6775 -0.0000 0.0000 -0.0000 0.0000 2.8339 2.6637 -0.3945 5.5377 5.3310 -0.4925 -8.4454 0.3122 -6.5127 6.0174 15.1818 -30.5902 20.1876 22.2124 1.8236 26.0028 4.9766 0.9716 42.2520 -0.6328 -4.9195 -9.0271 28.1335 -15.6967 -21.5841 9.6979 -15.6824 1.1297 1.9372 -0.9166 1.1297 1.9371 -0.9166 0.2514 12.3182 -0.9635 4.7587 2.5622 -0.4013 28.5771 -6.5459 19.7085 36.0142 -32.6063 -8.9777 -48.0896 7.4988 82.9913 -13.4568 -13.3148 -7.4505 -7.0429 28.7693 0.8541 62.4525 20.7452 52.6384 0.0000 -0.0000 0.0000 -4.7991 18.4638 3.4470 5.0849 6.4155 4.0962 1.7580 -12.0477 -10.4881 -0.0026 -12.4473 0.3004 
0.1719 8.5350 -0.3007 -7.0897 -1.2783 2.3511 0.0000 -0.0000 0.0000 5.5875 -18.4161 -12.9935 9.6396 2.5691 1.2110 1.1061 -5.3624 5.1395 -0.0000 -2.2906 -0.0000 0.0000 -0.0000 0.0000 3.0030 2.4724 -0.5181 5.8437 4.9259 -0.3648 -8.4276 0.3090 -6.6045 6.0957 14.8971 -30.5287 21.0053 22.9400 2.1175 25.6093 6.2910 1.2875 42.2520 -0.6328 -4.9195 -9.6643 28.4703 -16.2813 -22.1033 10.0331 -16.1373 1.1109 2.0847 -0.8948 1.1109 2.0848 -0.8948 -0.0900 12.9539 -0.9482 4.6605 2.5532 -0.5707 28.3850 -5.5301 19.6984 36.3022 -32.7720 -9.1492 -48.2126 7.5127 83.5347 -13.4732 -13.3532 -8.4838 -7.0429 28.7693 0.8541 62.4525 20.7452 52.6384 0.0000 -0.0000 0.0000 -4.7022 18.8306 2.8075 5.0995 11.2110 3.4697 1.4724 -10.9262 -9.5737 -0.0733 -19.8347 1.4388 
0.1990 8.4783 -0.2683 -7.8840 -1.7781 2.7345 0.0000 -0.0000 0.0000 5.7456 -17.5251 -13.9912 10.1695 6.6932 2.0745 1.3652 -3.4344 9.8598 0.0000 -2.5577 -0.0000 0.0000 -0.0000 0.0000 3.2596 2.3243 -0.6100 6.2757 4.6194 -0.3839 -8.3670 0.3127 -6.6207 6.0810 14.5936 -30.4423 21.4172 23.2931 2.2633 24.6255 7.3398 0.9930 42.2521 -0.6328 -4.9195 -10.2540 28.7740 -16.8228 -22.5824 10.3370 -16.5577 1.0873 2.1741 -0.8401 1.0873 2.1741 -0.8401 -0.3361 13.6436 -0.8509 4.5862 2.5508 -0.5699 28.3423 -4.5152 19.7115 36.6824 -32.9990 -9.3690 -48.4113 7.6523 83.5650 -13.5009 -12.5980 -9.1329 -7.0429 28.7693 0.8541 62.4525 20.7452 52.6384 0.0000 -0.0000 0.0000 -4.0148 16.8023 2.1073 4.8735 20.8626 3.2761 1.3235 -8.6075 -6.7708 -1.6522 -32.8346 8.6257 
0.2245 8.4141 -0.2285 -8.8580 -2.4494 3.3375 0.0000 -0.0000 0.0000 6.4159 -17.2781 -14.8179 11.2411 12.6873 3.0366 1.5289 -2.5560 11.4389 0.0000 -2.4207 -0.0000 0.0000 -0.0000 0.0000 3.3137 2.3317 -0.7837 6.3348 4.6532 -0.8483 -8.3030 0.3273 -6.3809 5.9228 14.1833 -30.3939 21.2796 23.1511 2.1981 23.1438 7.8729 -0.1606 42.2521 -0.6328 -4.9195 -10.7791 29.0381 -17.3060 -23.0080 10.6026 -16.9316 1.0737 2.1132 -0.7550 1.0737 2.1132 -0.7550 -0.1576 13.9747 -0.5825 4.5375 2.5575 -0.3636 28.6278 -4.0865 19.6904 37.0706 -33.2440 -9.5831 -48.5077 8.3268 83.3185 -13.7502 -11.7448 -9.7422 -7.0429 28.7693 0.8541 62.4525 20.7452 52.6384 0.0000 -0.0000 0.0000 -2.9192 12.8631 0.9838 3.4163 32.9202 2.7714 0.8137 -1.1814 1.6738 4.2299 -24.6851 45.1734 
0.2482 8.3707 -0.1946 -9.4880 -3.3026 4.3387 0.0000 -0.0000 0.0000 7.3103 -16.0410 -15.6462 12.0017 17.5156 3.3535 1.4284 -2.9780 10.2739 0.0000 -1.9658 -0.0000 0.0000 -0.0000 0.0000 2.9947 2.5820 -1.1244 5.7215 5.2039 -1.9511 -8.5892 0.3335 -5.8433 5.3760 13.3242 -30.1571 20.6776 22.5842 1.9551 21.5024 7.8038 -2.0144 42.2520 -0.6328 -4.9195 -11.2209 29.2558 -17.7142 -23.3656 10.8227 -17.2462 1.0746 1.9284 -0.6470 1.0746 1.9284 -0.6470 0.4397 13.8054 -0.0665 4.4796 2.5812 0.1020 29.2295 -4.5462 19.5922 37.1520 -33.3171 -9.6116 -48.2855 9.4156 83.0599 -14.3691 -11.0927 -10.5064 -7.0429 28.7693 0.8541 62.4525 20.7452 52.6384 0.0000 -0.0000 0.0000 -1.9621 8.5586 -0.1244 -1.7458 43.8691 -1.0197 0.8678 8.6980 9.6296 0.3830 -12.3945 6.8515 
